<svg width="32"
height="32"
viewBox="0 0 32 32"
fill="none"
xmlns="http://www.w3.org/2000/svg">
<path d="M16.0684 2.66666L14.2417 6.39999C12.9365 9.06712 11.1871 11.4928 9.0684 13.5733L8.8284 13.8C7.46769 15.121 6.69022 16.9303 6.6684 18.8267V19.0667C6.63236 22.7801 8.84521 26.1468 12.2684 27.5867L12.6151 27.7333C14.8602 28.687 17.3966 28.687 19.6417 27.7333H19.7217C23.1705 26.2349 25.3833 22.8132 25.3351 19.0533V13.2667C24.1858 15.8914 22.0986 17.9928 19.4817 19.16C19.4817 19.16 19.4817 19.16 19.4017 19.16C19.3217 19.16 18.3884 19.5467 17.9884 19.16C17.6311 18.7985 17.5969 18.2283 17.9084 17.8267L18.0017 17.76H18.0684C21.1294 15.4333 21.8431 11.1223 19.6951 7.93332C17.9617 5.29332 16.0684 2.66666 16.0684 2.66666Z"
    fill="currentColor" />
</svg>