<svg width="24" height="24" viewBox="0 0 24 24" fill="none" stroke="currentColor">
    <g clip-path="url(#clip0_5906_1668)">
        <path d="M18.4596 21.6958L18.46 21.6962C18.6906 21.9493 19.0138 22.095 19.3629 22.095C20.0188 22.095 20.564 21.5838 20.564 20.9434V17.8743H21.253C22.8151 17.8743 24.095 16.6503 24.095 15.1407V4.63865C24.095 3.12902 22.8151 1.905 21.253 1.905H2.74702C1.1849 1.905 -0.095 3.12902 -0.095 4.63865V15.1349C-0.095 16.6445 1.1849 17.8685 2.74702 17.8685H15.0177L18.4596 21.6958ZM22.4099 4.63865V15.1349C22.4099 15.7443 21.8909 16.2483 21.2469 16.2483H19.7214C19.2594 16.2483 18.8789 16.6083 18.8789 17.0613V19.692L16.0306 16.5312C16.0305 16.5312 16.0304 16.5311 16.0303 16.531C15.8711 16.3516 15.6379 16.2541 15.3943 16.2541H2.74702C2.10302 16.2541 1.58398 15.7502 1.58398 15.1407V4.63865C1.58398 4.02918 2.10302 3.52524 2.74702 3.52524H21.2469C21.8909 3.52524 22.4099 4.02918 22.4099 4.63865Z" fill="currentColor" stroke="currentColor" stroke-width="0.19" />
        <path d="M11.9425 11.1401C12.5097 11.1401 12.9799 10.697 12.9799 10.1378C12.9799 9.57858 12.5097 9.13546 11.9425 9.13546C11.3754 9.13546 10.9052 9.57858 10.9052 10.1378C10.9052 10.697 11.3754 11.1401 11.9425 11.1401Z" fill="currentColor" stroke="currentColor" stroke-width="0.3" />
        <path d="M6.73938 11.1401C7.30652 11.1401 7.77668 10.697 7.77668 10.1378C7.77668 9.57858 7.30652 9.13546 6.73938 9.13546C6.17224 9.13546 5.70208 9.57858 5.70208 10.1378C5.70208 10.697 6.17224 11.1401 6.73938 11.1401Z" fill="currentColor" stroke="currentColor" stroke-width="0.3" />
        <path d="M17.1458 11.1401C17.7129 11.1401 18.1831 10.697 18.1831 10.1378C18.1831 9.57858 17.7129 9.13546 17.1458 9.13546C16.5786 9.13546 16.1085 9.57858 16.1085 10.1378C16.1085 10.697 16.5786 11.1401 17.1458 11.1401Z" fill="currentColor" stroke="currentColor" stroke-width="0.3" />
    </g>
    <defs>
        <clipPath id="clip0_5906_1668">
            <rect width="24" height="24" fill="white" />
        </clipPath>
    </defs>
</svg>