<svg width="28"
height="28"
viewBox="0 0 28 28"
fill="none"
xmlns="http://www.w3.org/2000/svg">
<path fill-rule="evenodd"
    clip-rule="evenodd"
    d="M24.6945 2.04131C24.25 2.18013 0.581239 11.634 0.42834 11.7338C0.106167 11.9442 -0.0735802 12.4269 0.0287258 12.8069C0.110388 13.1101 0.327813 13.3573 0.643426 13.5059C0.797241 13.5782 2.27041 14.1515 3.91707 14.7796C5.56377 15.4079 6.92035 15.9312 6.93168 15.9424C6.94297 15.9538 7.35184 17.4777 7.84018 19.3289C8.32853 21.1802 8.75377 22.7448 8.78514 22.806C9.06664 23.355 9.77327 23.529 10.3014 23.1795C10.4144 23.1047 11.2521 22.5069 12.163 21.8511L13.819 20.6585L14.2864 20.9798C15.9088 22.0952 20.3366 25.0838 20.4797 25.1601C20.5903 25.219 20.7644 25.2527 20.9655 25.2541C21.2331 25.2559 21.3112 25.2338 21.4994 25.1033C21.6323 25.0112 21.7646 24.8597 21.8326 24.7219C21.9818 24.4193 26.0364 3.18225 25.9998 2.89547C25.9222 2.28915 25.2693 1.86186 24.6945 2.04131ZM12.1351 9.24226C7.61849 11.043 3.91168 12.5175 3.89769 12.519C3.82218 12.527 4.22088 12.6875 6.11014 13.4096C7.25259 13.8463 8.25226 14.2371 8.33168 14.2782C8.6264 14.4306 8.74568 14.6867 9.0317 15.7811C9.18038 16.3499 9.31935 16.8347 9.3405 16.8585C9.36166 16.8822 9.39522 16.8277 9.4151 16.7373C9.4635 16.5168 9.42501 16.555 14.9825 11.2199C20.4935 5.92946 20.4645 5.95758 20.3974 5.96368C20.3697 5.96622 16.6516 7.44155 12.1351 9.24226ZM17.6775 11.4795C14.5872 14.4564 12.0534 16.9092 12.0468 16.93C12.0305 16.9814 20.1725 22.4984 20.2098 22.4611C20.231 22.4399 22.7568 9.29016 23.3136 6.30233C23.3383 6.16952 23.3445 6.06217 23.3273 6.06385C23.3102 6.06553 20.7678 8.50256 17.6775 11.4795ZM9.55854 17.7815C9.57588 17.8374 9.74901 18.4857 9.9432 19.2223C10.1374 19.9588 10.3087 20.5739 10.324 20.5892C10.3517 20.6168 11.9767 19.4823 11.9786 19.434C11.9792 19.42 11.5184 19.0997 10.9545 18.7221C10.3907 18.3446 9.83881 17.9556 9.72817 17.8578C9.57298 17.7206 9.53418 17.7031 9.55854 17.7815Z"
    fill="currentColor" />
</svg>